<?xml version="1.0" encoding="utf-8"?>
<!-- Generator: Adobe Illustrator 19.0.0, SVG Export Plug-In . SVG Version: 6.00 Build 0)  -->
<svg version="1.1" id="Layer_1" xmlns="http://www.w3.org/2000/svg" xmlns:xlink="http://www.w3.org/1999/xlink" x="0px" y="0px"
	 viewBox="-234.7 317.3 273.3 215.3" style="enable-background:new -234.7 317.3 273.3 215.3;" xml:space="preserve">
<style type="text/css">
	.st0{fill:url(#SVGID_1_);}
	.st1{fill:url(#SVGID_2_);}
	.st2{fill:#161616;stroke:#161616;stroke-width:1.000000e-002;stroke-miterlimit:10;}
	.st3{fill:url(#SVGID_3_);}
</style>
<linearGradient id="SVGID_1_" gradientUnits="userSpaceOnUse" x1="5.9545" y1="340.5296" x2="-197.3789" y2="507.1963">
	<stop  offset="5.172414e-002" style="stop-color:#252525"/>
	<stop  offset="0.1585" style="stop-color:#141414"/>
	<stop  offset="0.2917" style="stop-color:#090909"/>
	<stop  offset="0.4792" style="stop-color:#020202"/>
	<stop  offset="1" style="stop-color:#000000"/>
</linearGradient>
<path class="st0" d="M21.5,527.9h-237c-6.6,0-12-5.4-12-12v-182c0-6.6,5.4-12,12-12h237c6.6,0,12,5.4,12,12v182
	C33.5,522.5,28.1,527.9,21.5,527.9z"/>
<g id="SvgjsG1026" transform="matrix(1,0,0,1,45,0)">
	
		<linearGradient id="SVGID_2_" gradientUnits="userSpaceOnUse" x1="-437.2091" y1="837.9797" x2="-436.2091" y2="837.9797" gradientTransform="matrix(110 0 0 -98 47896 82508.0469)">
		<stop  offset="0" style="stop-color:#147D6C"/>
		<stop  offset="1" style="stop-color:#1EFFFF"/>
	</linearGradient>
	<path class="st1" d="M-189,337h94c4.4,0,8,3.6,8,8v82c0,4.4-3.6,8-8,8h-94c-4.4,0-8-3.6-8-8v-82C-197,340.6-193.4,337-189,337z"/>
</g>
<g id="SvgjsG1027" transform="matrix(0.8749547743332207,0,0,0.8749547743332207,56.254071978853936,5.139259292742093)">
	<title  xmlns="http://www.w3.org/2000/svg">collections_08</title>
	<path class="st2" d="M-188.8,425.6c0.4,0.2,0.7,0.4,1.1,0.5c2.5,1,5.1,1.6,7.7,1.9c2.4,0.2,4.9,0.3,7.4,0.2
		c2.2-0.1,4.4-0.4,6.5-0.9c1.5-0.3,3-0.9,4.4-1.6c0.4-0.2,0.4-0.3,0.4-0.8c-0.1-1.1-0.1-3.9-0.2-5c-0.1-1.2-0.3-2.3-0.6-3.5
		c-0.2-1-0.9-1.7-1.8-2.1c-1.3-0.4-2.6-0.8-3.8-1.3l-3.4-1.1c-0.3-0.1-0.3-0.1-0.4,0.3c-0.5,2.7-1.2,5.3-1.9,7.8
		c0,0.2-0.1,0.3-0.2,0.6c0-0.1,0-0.1,0-0.2c-0.2-1.6-0.3-3.2-0.5-4.8c-0.1-0.4,0-0.8,0.2-1.2c0.1-0.2,0.2-0.4,0.2-0.6
		c0.1-0.4-0.1-0.8-0.4-1c-0.7,0-1.3,0-2,0c-0.1,0-0.2,0.1-0.2,0.1c-0.2,0.3-0.3,0.7-0.1,1.1c0.1,0.3,0.2,0.5,0.3,0.8
		c0.1,0.2,0.1,0.5,0.1,0.8c-0.1,1.1-0.2,2.3-0.4,3.4c-0.1,0.5-0.1,1-0.2,1.6h-0.1c-0.8-2.8-1.6-5.7-2.1-8.7c-0.1,0-0.3,0-0.4,0.1
		l-7.2,2.3c-0.7,0.2-1.3,0.8-1.5,1.6c-0.3,0.8-0.5,1.6-0.6,2.4c-0.3,2.3-0.4,4.5-0.4,6.8C-189.1,425.4-189,425.6-188.8,425.6z"/>
	<circle class="st2" cx="-175.2" cy="402.8" r="6.3"/>
	<circle class="st2" cx="-204.7" cy="454.8" r="4.8"/>
	<path class="st2" d="M-194.3,467.6c-0.1-0.9-0.2-1.8-0.5-2.6c-0.1-0.7-0.6-1.3-1.3-1.6c-1-0.3-1.9-0.6-2.9-0.9l-1.3-0.4
		c-0.3-0.1-0.6-0.2-0.9-0.2c0-0.7-1.6-1.2-3.5-1.2s-3.5,0.5-3.5,1.2c-0.3,0.1-0.6,0.1-0.9,0.2l-4.1,1.3c-0.6,0.2-1,0.6-1.2,1.2
		c-0.2,0.6-0.4,1.2-0.5,1.8c-0.2,1.7-0.3,3.4-0.3,5.1c0,0.1,0.1,0.3,0.2,0.4c0.3,0.1,0.6,0.3,0.8,0.4c1.9,0.8,3.8,1.2,5.8,1.4
		c1.8,0.2,3.7,0.2,5.5,0.1c1.7-0.1,3.3-0.3,4.9-0.7c1.2-0.3,2.3-0.7,3.3-1.2c0.3-0.1,0.3-0.2,0.3-0.6
		C-194.3,470.6-194.3,468.5-194.3,467.6z"/>
	<circle class="st2" cx="-175.2" cy="454.8" r="4.8"/>
	<path class="st2" d="M-164.8,467.6c-0.1-0.9-0.2-1.8-0.5-2.6c-0.1-0.7-0.7-1.3-1.4-1.6c-1-0.3-1.9-0.6-2.9-0.9l-1.3-0.4
		c-0.3-0.1-0.6-0.2-0.9-0.2c0-0.7-1.6-1.2-3.5-1.2s-3.5,0.5-3.5,1.2c-0.3,0.1-0.6,0.1-0.9,0.2l-4.1,1.3c-0.6,0.2-1,0.6-1.1,1.2
		c-0.2,0.6-0.4,1.2-0.5,1.8c-0.2,1.7-0.3,3.4-0.3,5.1c0,0.1,0.1,0.3,0.2,0.4c0.3,0.1,0.6,0.3,0.8,0.4c1.9,0.8,3.8,1.2,5.8,1.4
		c1.8,0.2,3.7,0.2,5.5,0.1c1.6-0.1,3.3-0.3,4.9-0.7c1.2-0.3,2.3-0.7,3.3-1.2c0.3-0.1,0.3-0.2,0.3-0.6
		C-164.7,470.6-164.8,468.5-164.8,467.6z"/>
	<circle class="st2" cx="-145.6" cy="454.8" r="4.8"/>
	<path class="st2" d="M-135.2,471.4c0-0.8-0.1-2.9-0.1-3.8c-0.1-0.9-0.2-1.8-0.5-2.6c-0.2-0.7-0.7-1.3-1.4-1.6
		c-1-0.3-1.9-0.6-2.9-0.9l-1.3-0.4c-0.3-0.1-0.6-0.2-0.9-0.2c0-0.7-1.6-1.2-3.5-1.2c-1.9,0-3.5,0.5-3.5,1.2
		c-0.3,0.1-0.6,0.1-0.9,0.2l-4.1,1.3c-0.6,0.2-1,0.6-1.1,1.2c-0.2,0.6-0.4,1.2-0.5,1.8c-0.2,1.7-0.3,3.4-0.3,5.1
		c0,0.1,0.1,0.3,0.2,0.4c0.3,0.1,0.6,0.3,0.8,0.4c1.9,0.8,3.8,1.2,5.8,1.4c1.8,0.2,3.7,0.2,5.5,0.1c1.6-0.1,3.3-0.3,4.8-0.7
		c1.2-0.3,2.3-0.7,3.3-1.2C-135.2,471.8-135.2,471.8-135.2,471.4z"/>
	<path class="st2" d="M-204.7,446.2c0.6,0,1-0.4,1-1v-6.7h27.5v6.7c0,0.6,0.4,1,1,1c0.6,0,1-0.4,1-1v-6.7h27.5v6.7c0,0.6,0.4,1,1,1
		c0.6,0,1-0.4,1-1v-7.7c0-0.6-0.4-1-1-1h-28.5v-5.1c0-0.6-0.4-1-1-1c-0.6,0-1,0.4-1,1v5.1h-28.5c-0.6,0-1,0.4-1,1v7.7
		C-205.7,445.7-205.2,446.2-204.7,446.2z"/>
</g>
<g id="SvgjsG1028" transform="matrix(1.538935158126198,0,0,1.538935158126198,-2.4622962896929903,105.38073493217964)">
	
		<linearGradient id="SVGID_3_" gradientUnits="userSpaceOnUse" x1="-253.7812" y1="473.8856" x2="-252.7812" y2="473.8856" gradientTransform="matrix(200 0 0 -49.8615 50629.8203 23872.0469)">
		<stop  offset="0" style="stop-color:#147D6C"/>
		<stop  offset="1" style="stop-color:#1EFFFF"/>
	</linearGradient>
	<path class="st3" d="M-126.4,259v-31.2h15.5c3.2,0,5.8,0.8,7.5,2.4c1.7,1.6,2.6,3.7,2.6,6.4c0,3-1.3,5.3-3.8,6.7
		c2.5,1.4,3.8,3.9,3.8,6.9c0,2.7-0.9,4.8-2.6,6.4c-1.8,1.6-4.3,2.4-7.5,2.4C-110.9,259-126.4,259-126.4,259z M-118.4,240.3h6.6
		c2,0,3-0.9,3-2.6c0-0.8-0.2-1.4-0.6-1.9c-0.4-0.4-1-0.6-1.9-0.6h-7C-118.4,235.2-118.4,240.3-118.4,240.3z M-118.4,251.6h7
		c0.8,0,1.4-0.2,1.9-0.6c0.4-0.5,0.6-1.1,0.6-1.9c0-1.7-1-2.6-3-2.6h-6.6C-118.4,246.5-118.4,251.6-118.4,251.6z M-81,259.6
		c-4.5,0-8.4-1.6-11.6-4.8c-3.3-3.2-4.9-7-4.9-11.4s1.6-8.3,4.9-11.4c3.2-3.2,7.1-4.8,11.6-4.8c4.6,0,8.5,1.6,11.7,4.8
		c3.2,3.2,4.8,7,4.8,11.4s-1.6,8.3-4.8,11.4C-72.5,258-76.5,259.6-81,259.6z M-81,251.9c2.4,0,4.4-0.8,6-2.5s2.4-3.6,2.4-6
		s-0.8-4.4-2.4-6c-1.6-1.6-3.6-2.4-6-2.4c-2.4,0-4.4,0.8-6,2.5s-2.5,3.6-2.5,6s0.8,4.4,2.5,6S-83.4,251.9-81,251.9z M-44.7,259.6
		c-4.5,0-8.4-1.6-11.6-4.8c-3.3-3.2-4.9-7-4.9-11.4s1.6-8.3,4.9-11.4c3.2-3.2,7.1-4.8,11.6-4.8c4.6,0,8.5,1.6,11.7,4.8
		c2.4,2.4,4,5.1,4.5,8.2h-8.4c-0.4-1-1-2-1.8-2.8c-1.6-1.6-3.6-2.4-6-2.4c-2.4,0-4.4,0.8-6,2.5s-2.5,3.6-2.5,6s0.8,4.4,2.5,6
		s3.6,2.5,6,2.5c2.4,0,4.4-0.8,6-2.5c1.1-1.1,1.8-2.4,2.2-3.8h8.2c-0.4,3.6-2,6.6-4.7,9.3C-36.2,258-40.1,259.6-44.7,259.6z
		 M-25.1,259v-31.2h8v10.8l9.7-10.8H2.9l-12.3,13.4l13,17.8h-9.9l-8.6-11.8l-2.1,2.4v9.4H-25.1z"/>
</g>
</svg>
